<svg xmlns="http://www.w3.org/2000/svg" viewBox="-410.0 -410.0 3097.5 1819.9"><rect x="-410.0" y="-410.0" width="3097.5" height="1819.9" fill="#FFFFFF"/><svg x="0.0" y="0.0" width="1000.0" height="1000.0" viewBox="436.0 381.0 1633.0 1633.0"><g><g transform="translate(0.000000,2508.000000) scale(0.100000,-0.100000)" fill="#9A3B86"><path d="M5785 15957 c-53 -30 -99 -100 -115 -176 -11 -52 -11 -352 -1 -1714 6 -909 11 -2759 11 -4113 0 -2710 -5 -2512 60 -2614 43 -67 88 -106 174 -150 42 -22 114 -59 159 -83 45 -25 132 -70 192 -102 61 -32 128 -68 150 -80 22 -12 83 -45 135 -72 178 -94 685 -366 770 -413 47 -26 164 -89 260 -140 96 -51 243 -130 325 -175 83 -45 220 -119 305 -165 85 -46 202 -109 260 -140 58 -31 179 -97 270 -145 91 -49 228 -123 305 -165 77 -43 169 -92 205 -110 36 -18 73 -39 82 -47 9 -8 21 -12 26 -9 6 3 7 972 4 2514 -3 1656 -2 2511 5 2515 5 4 54 -40 109 -96 233 -241 538 -551 959 -977 247 -250 736 -745 1085 -1100 349 -355 786 -798 970 -985 185 -187 756 -766 1268 -1286 728 -739 943 -952 980 -970 36 -17 65 -23 122 -23 86 -1 88 0 405 169 99 53 241 128 315 167 74 39 140 74 145 78 6 4 82 44 170 90 88 45 165 86 170 90 6 4 73 40 150 80 77 40 145 76 150 80 6 4 60 33 120 65 61 31 133 70 160 85 42 23 463 247 810 430 108 57 544 288 635 337 367 197 929 495 1045 553 137 69 209 152 251 289 18 60 21 7826 3 7911 -23 108 -102 184 -190 183 -59 -1 76 65 -1901 -923 l-1608 -803 0 -2989 c0 -1643 -3 -2988 -8 -2988 -8 0 -761 754 -1223 1225 -161 165 -465 473 -674 685 -209 212 -511 518 -670 680 -921 935 -1967 1991 -3070 3095 l-680 682 -390 200 c-590 304 -1933 996 -2080 1073 -71 37 -265 136 -430 220 -165 84 -355 182 -423 216 -141 73 -187 81 -257 41z"/></g><g transform="translate(121.96 99.16) scale(1.80389) translate(0.000000,1254.000000) scale(0.100000,-0.100000)" fill="#9A3B86"><path d="M7884 10426 c-128 -29 -231 -101 -311 -214 -25 -37 -49 -71 -53 -75 -4 -4 -53 13 -109 39 -126 56 -195 66 -262 37 -35 -16 -63 -44 -135 -134 l-91 -115 767 -387 c567 -286 776 -387 801 -387 30 0 48 12 122 83 95 89 99 99 76 182 -15 54 -84 119 -191 178 -48 26 -89 51 -92 56 -3 4 9 41 26 82 57 135 49 300 -19 418 -56 97 -163 185 -271 222 -74 26 -181 32 -258 15z m199 -220 c46 -19 94 -77 102 -125 9 -52 -20 -119 -66 -152 -50 -36 -151 -39 -199 -7 -38 25 -80 97 -80 138 0 14 10 46 23 70 39 78 136 111 220 76z"/><path d="M6260 10302 c-63 -33 -270 -145 -460 -248 -361 -198 -549 -293 -2161 -1092 -654 -324 -991 -496 -998 -510 -17 -31 -13 -66 10 -95 11 -16 92 -63 192 -113 95 -48 177 -90 182 -94 6 -4 147 -78 315 -165 369 -191 863 -449 1215 -635 387 -204 965 -501 1268 -652 l269 -133 71 0 72 1 645 323 c842 422 1427 720 2882 1468 96 49 128 85 128 144 0 78 14 69 -833 510 l-288 150 -73 -54 c-39 -30 -86 -62 -104 -71 -45 -23 -110 -30 -162 -16 -68 17 -1619 799 -1664 838 -10 10 -25 32 -33 50 -21 50 -3 95 72 184 l64 77 -62 34 c-260 142 -278 150 -357 154 l-75 4 -115 -59z m-410 -622 c56 -15 70 -31 98 -112 l27 -76 200 64 c110 35 214 64 232 64 103 0 168 -93 113 -163 -16 -20 -49 -35 -133 -61 -288 -88 -501 -146 -540 -146 -59 0 -103 30 -116 77 -24 89 -61 254 -61 272 0 29 31 60 75 76 48 17 60 18 105 5z m1536 -670 c849 -432 905 -462 927 -492 17 -22 18 -33 11 -60 -8 -28 -25 -42 -114 -93 -98 -56 -109 -60 -165 -59 -57 1 -74 8 -370 161 -170 88 -494 253 -720 368 -225 114 -425 219 -442 232 -75 56 -52 105 83 179 88 48 105 53 160 54 60 0 67 -3 630 -290z m-2220 181 c43 -20 51 -33 79 -133 9 -32 18 -58 20 -58 1 0 94 32 205 70 111 39 213 70 226 70 38 0 97 -35 117 -68 24 -43 21 -77 -10 -111 -24 -25 -64 -41 -253 -100 -409 -126 -425 -129 -488 -91 -40 25 -43 31 -78 208 -26 131 -28 145 -14 170 33 58 120 77 196 43z m1283 -582 c959 -488 1089 -557 1101 -579 16 -31 11 -67 -12 -94 -13 -14 -68 -48 -123 -77 -91 -47 -104 -51 -148 -45 -38 4 -162 63 -541 257 -1002 513 -973 498 -986 530 -24 56 2 82 155 162 55 29 81 37 124 37 51 0 79 -13 430 -191z m-2048 58 c28 -18 38 -36 59 -100 14 -42 30 -77 37 -77 6 0 96 29 198 65 103 36 203 65 222 65 70 0 133 -56 133 -118 0 -62 -24 -76 -244 -146 -440 -141 -452 -143 -513 -106 -43 26 -47 36 -77 178 -28 133 -32 183 -15 213 26 50 142 65 200 26z m1287 -554 c880 -447 1068 -545 1085 -564 25 -30 22 -82 -6 -109 -12 -12 -65 -44 -117 -72 -144 -75 -135 -77 -515 119 -170 88 -427 220 -570 293 -592 302 -585 298 -585 349 0 33 40 68 140 121 153 80 130 86 568 -137z"/></g></g></svg><g transform="translate(1160.0 190.0) scale(1.33621) translate(-101.5 -148.6)"><path d="M113.2 349.0V148.6H173.5L250.9 291.4V148.6H296.79999999999995V349.0H236.2L158.8 206.20000000000002V349.0Z M388.6 352.6Q367.9 352.6 349.9 344.20000000000005Q331.9 335.8 320.79999999999995 318.25Q309.7 300.7 309.7 274.0Q309.7 247.0 320.79999999999995 229.75Q331.9 212.5 349.9 204.25Q367.9 196.0 388.6 196.0Q409.0 196.0 427.0 204.25Q445.0 212.5 456.1 229.75Q467.2 247.0 467.2 274.0Q467.2 300.7 456.1 318.25Q445.0 335.8 427.0 344.20000000000005Q409.0 352.6 388.6 352.6ZM388.6 317.2Q402.4 317.2 411.54999999999995 307.29999999999995Q420.7 297.4 420.7 274.0Q420.7 250.3 411.25 240.85000000000002Q401.8 231.4 388.6 231.4Q375.1 231.4 365.65 240.85000000000002Q356.2 250.3 356.2 274.0Q356.2 297.4 365.5 307.29999999999995Q374.8 317.2 388.6 317.2Z M481.9 349.0V200.20000000000002H517.9L526.0 227.5Q532.9 209.5 544.9 202.3Q556.9 195.1 574.0 196.0V241.60000000000002Q570.4 241.0 567.7 240.85Q565.0 240.7 561.6999999999999 240.7Q545.1999999999999 240.7 536.3499999999999 248.5Q527.5 256.3 527.5 274.0V349.0Z M648.7 349.0Q630.4 349.0 619.5999999999999 345.85Q608.8 342.7 604.15 333.54999999999995Q599.5 324.4 599.5 307.0V235.0H574.9V200.20000000000002H599.5V163.0H645.1V200.20000000000002H677.5V235.0H645.1V295.0Q645.1 305.5 649.1500000000001 308.65Q653.2 311.8 664.3 311.8H677.5V349.0Z M766.0 352.6Q742.0 352.6 723.55 343.15Q705.1 333.7 694.75 316.0Q684.4000000000001 298.3 684.4000000000001 273.7Q684.4000000000001 250.0 695.3500000000001 232.60000000000002Q706.3000000000001 215.20000000000002 724.45 205.60000000000002Q742.6 196.0 764.2 196.0Q788.8000000000001 196.0 806.3500000000001 207.55Q823.9000000000001 219.1 832.9000000000001 239.35000000000002Q841.9000000000001 259.6 840.4000000000001 286.0H730.3000000000001Q731.5 301.6 741.85 309.4Q752.2 317.2 764.8000000000001 317.2Q775.3000000000001 317.2 782.95 314.04999999999995Q790.6 310.9 794.8000000000001 306.1L831.1 319.3Q819.4000000000001 336.4 801.8500000000001 344.5Q784.3000000000001 352.6 766.0 352.6ZM730.3000000000001 259.0H798.1Q797.8000000000001 244.60000000000002 788.2 237.25Q778.6 229.9 765.4000000000001 229.9Q752.5 229.9 742.45 236.8Q732.4000000000001 243.7 730.3000000000001 259.0Z M101.5 609.0 177.39999999999998 408.6H229.6L305.5 609.0H253.9L241.9 573.3H165.1L153.1 609.0ZM178.0 534.9H229.0L203.2 458.70000000000005Z M352.6 609.0 299.5 460.20000000000005H346.6L378.4 561.6L410.2 460.20000000000005H457.29999999999995L403.9 609.0Z M508.29999999999995 612.6Q494.19999999999993 612.6 482.49999999999994 607.2Q470.79999999999995 601.8 463.9 592.05Q456.99999999999994 582.3 456.99999999999994 568.8Q456.99999999999994 550.5 469.74999999999994 539.7Q482.49999999999994 528.9 504.69999999999993 523.5Q526.9 518.1 555.6999999999999 516.0Q555.6999999999999 500.1 550.5999999999999 493.5Q545.5 486.9 530.8 486.9Q521.5 486.9 514.45 491.25Q507.4 495.6 504.99999999999994 504.6L466.59999999999997 490.8Q474.09999999999997 475.8 491.65 465.9Q509.19999999999993 456.0 534.6999999999999 456.0Q566.5 456.0 583.5999999999999 470.1Q600.6999999999999 484.2 600.6999999999999 518.1V550.8Q600.6999999999999 560.4 601.3 571.5Q601.9 582.6 603.0999999999999 592.5Q604.3 602.4 605.8 609.0H563.5L558.0999999999999 591.0Q549.6999999999999 602.7 536.9499999999999 607.6500000000001Q524.1999999999999 612.6 508.29999999999995 612.6ZM525.0999999999999 581.4Q538.5999999999999 581.4 547.5999999999999 574.2Q556.5999999999999 567.0 556.5999999999999 546.6V543.0Q532.9 545.1 518.5 549.45Q504.09999999999997 553.8 504.09999999999997 565.5Q504.09999999999997 572.7 510.0999999999999 577.05Q516.0999999999999 581.4 525.0999999999999 581.4Z M672.4 609.0Q654.0999999999999 609.0 643.3 605.85Q632.4999999999999 602.7 627.8499999999999 593.55Q623.1999999999999 584.4 623.1999999999999 567.0V408.6H668.8V555.0Q668.8 565.5 673.0 568.65Q677.1999999999999 571.8 688.5999999999999 571.8H701.4999999999999V609.0Z M753.4 435.6Q742.3 435.6 734.3499999999999 427.65000000000003Q726.4 419.70000000000005 726.4 408.6Q726.4 397.20000000000005 734.3499999999999 389.40000000000003Q742.3 381.6 753.4 381.6Q764.8 381.6 772.5999999999999 389.40000000000003Q780.4 397.20000000000005 780.4 408.6Q780.4 419.70000000000005 772.5999999999999 427.65000000000003Q764.8 435.6 753.4 435.6ZM730.3 609.0V495.0H702.1V460.20000000000005H776.1999999999999V609.0Z M840.4 612.6Q826.3 612.6 814.5999999999999 607.2Q802.9 601.8 796.0 592.05Q789.1 582.3 789.1 568.8Q789.1 550.5 801.85 539.7Q814.6 528.9 836.8 523.5Q859.0 518.1 887.8 516.0Q887.8 500.1 882.7 493.5Q877.6 486.9 862.9 486.9Q853.6 486.9 846.55 491.25Q839.5 495.6 837.1 504.6L798.6999999999999 490.8Q806.1999999999999 475.8 823.75 465.9Q841.3 456.0 866.8 456.0Q898.5999999999999 456.0 915.6999999999999 470.1Q932.8 484.2 932.8 518.1V550.8Q932.8 560.4 933.4 571.5Q934.0 582.6 935.2 592.5Q936.4 602.4 937.9 609.0H895.6L890.1999999999999 591.0Q881.8 602.7 869.05 607.6500000000001Q856.3 612.6 840.4 612.6ZM857.1999999999999 581.4Q870.6999999999999 581.4 879.6999999999999 574.2Q888.6999999999999 567.0 888.6999999999999 546.6V543.0Q865.0 545.1 850.5999999999999 549.45Q836.1999999999999 553.8 836.1999999999999 565.5Q836.1999999999999 572.7 842.1999999999999 577.05Q848.1999999999999 581.4 857.1999999999999 581.4Z " fill="#9A3B86"/></g></svg>